<svg version="1.1" id="Layer_1" xmlns="http://www.w3.org/2000/svg" xmlns:xlink="http://www.w3.org/1999/xlink" x="0px" y="0px"
	 width="100%" viewBox="0 0 512 512" enable-background="new 0 0 512 512" xml:space="preserve">
<path fill="#000000" opacity="1.000000" stroke="none" 
	d="
M1.000000,162.468658 
	C4.158514,157.958313 4.292395,152.766541 6.215987,148.216339 
	C17.663595,121.137276 37.315525,103.362823 65.858086,96.524940 
	C100.482086,88.230133 137.572281,100.882988 158.332321,132.604858 
	C165.250198,143.175537 169.822815,154.569229 171.336899,167.124008 
	C171.638474,169.624649 172.841629,170.661133 175.227539,170.630524 
	C176.226685,170.617691 177.226273,170.645721 178.225662,170.645752 
	C230.696091,170.646835 283.166656,170.596771 335.636749,170.730835 
	C340.458557,170.743149 342.154968,169.772888 342.988892,164.356796 
	C345.492310,148.096909 352.979706,133.943268 364.092102,121.733490 
	C377.716949,106.763176 394.639587,97.589767 414.546692,95.042374 
	C443.453308,91.343376 468.961609,98.930237 489.700317,120.318001 
	C502.243652,133.253937 509.764984,148.607925 512.899109,166.635376 
	C513.000000,176.020889 513.000000,185.041794 512.892822,194.883255 
	C512.411865,196.802032 511.914032,197.874817 511.683014,199.002274 
	C508.184204,216.076050 499.756256,230.399780 487.494720,242.614471 
	C481.750916,248.336273 474.721039,252.335358 467.587158,257.146057 
	C479.548035,263.629791 489.498383,271.686371 497.169525,282.322540 
	C505.545135,293.935486 510.607025,306.927094 513.000000,321.000000 
	C513.000000,329.354218 513.000000,337.708466 513.000000,346.531342 
	C510.321381,361.764343 504.983582,375.355377 495.389496,387.086914 
	C479.480377,406.540314 459.406342,417.744446 433.978424,419.486481 
	C411.595306,421.019867 391.568878,415.289795 374.125763,401.463715 
	C356.670135,387.627716 345.978760,369.474731 342.745575,347.294739 
	C342.178040,343.401306 340.077484,343.348846 337.244415,343.352203 
	C317.415405,343.375854 297.586395,343.362396 277.757355,343.360718 
	C244.431229,343.357849 211.104980,343.399170 177.779175,343.294342 
	C173.734863,343.281647 171.836929,343.895874 171.065903,348.751892 
	C165.475662,383.960052 137.330475,411.981079 102.174492,418.466064 
	C76.458939,423.209625 53.224552,417.202789 32.894558,401.565765 
	C17.538509,389.754547 7.136486,373.941254 2.722203,354.695312 
	C2.457428,353.540924 2.290546,352.420807 1.247367,351.251099 
	C1.000000,339.645782 1.000000,328.291534 1.281648,316.248077 
	C1.845425,315.153473 2.290233,314.783173 2.386199,314.337708 
	C6.015764,297.488159 14.307342,283.211334 26.646318,271.346436 
	C32.428776,265.786102 38.923973,261.009186 46.340599,257.040649 
	C44.344185,255.699081 42.895782,254.595139 41.330540,253.694229 
	C26.489300,245.151794 16.201054,232.600739 8.554478,217.466782 
	C5.074654,210.579590 3.969688,202.989944 1.000000,196.000000 
	C1.000000,184.979111 1.000000,173.958206 1.000000,162.468658 
M64.156685,397.147369 
	C73.124458,400.367737 82.265915,401.561493 91.848763,400.761230 
	C111.436096,399.125549 126.938416,389.996796 139.206329,375.245117 
	C148.741745,363.779144 152.999771,350.082062 153.663971,335.246582 
	C153.986801,328.035522 157.401291,324.678711 164.517319,324.669067 
	C177.682693,324.651215 190.848083,324.659485 204.013474,324.659668 
	C252.508774,324.660400 301.004059,324.658875 349.499359,324.667358 
	C356.994141,324.668671 360.076294,327.521057 360.266907,335.100067 
	C360.347015,338.285309 360.807587,341.364685 361.353973,344.467865 
	C363.438995,356.310638 367.816040,367.383850 375.735596,376.305573 
	C391.173981,393.697479 410.297089,403.052246 434.284546,400.731171 
	C450.571472,399.155212 464.513458,392.391724 475.562317,380.922394 
	C488.701508,367.283112 495.611969,350.582336 494.674591,331.175568 
	C493.621338,309.370789 484.193298,292.124817 466.616638,279.277161 
	C459.842163,274.325348 452.358765,270.864349 444.281036,268.594818 
	C440.571564,267.552582 436.856079,266.298370 435.810547,261.835510 
	C433.488312,251.923340 436.078400,247.498322 445.869110,244.786133 
	C452.501831,242.948730 458.755981,240.191071 464.339386,236.241211 
	C484.949310,221.661133 495.583252,201.891815 494.644714,176.386230 
	C494.009583,159.126831 487.046783,144.262131 474.977905,132.441742 
	C460.649445,118.408257 443.049316,111.758713 422.591156,113.277077 
	C402.620941,114.759239 386.839783,123.876854 374.473145,139.088547 
	C365.060669,150.666489 360.916962,164.350769 360.298157,179.192093 
	C359.996307,186.431030 356.871155,189.333878 349.679565,189.334579 
	C287.852234,189.340591 226.024933,189.335312 164.197617,189.316544 
	C157.797440,189.314606 153.953140,185.803223 153.715958,179.354019 
	C153.350739,169.423981 150.802170,160.180008 146.696793,151.124649 
	C136.038666,127.615608 108.792564,110.816620 81.744263,113.194626 
	C63.477779,114.800552 48.557446,122.128830 36.293442,135.674240 
	C12.986944,161.415924 13.381885,200.804550 37.808971,226.542725 
	C46.292221,235.481277 56.669716,241.583038 68.613930,244.995789 
	C72.202278,246.021072 76.208710,246.804321 77.847298,251.001144 
	C81.190529,259.563995 77.770737,266.720673 68.773201,268.991394 
	C40.078358,276.233002 18.888847,305.545441 19.117426,334.263092 
	C19.325838,360.447449 37.725842,388.387970 64.156685,397.147369 
z"/>
<path fill="#000000" opacity="1.000000" stroke="none" 
	d="
M317.110962,235.602020 
	C318.726624,251.856171 312.418121,263.752136 299.950439,273.419708 
	C290.931549,280.413025 282.932953,288.726532 274.520569,296.495911 
	C269.518799,301.115356 264.505066,305.729004 259.681458,310.530792 
	C257.579163,312.623535 256.184204,312.132019 254.276382,310.359283 
	C241.388748,298.384033 228.525436,286.379150 215.446701,274.614624 
	C209.637405,269.389099 203.614365,264.589783 200.152496,257.211670 
	C190.639740,236.937592 200.398575,215.360703 220.919830,207.772568 
	C232.050766,203.656708 243.273148,204.051971 254.185532,209.044037 
	C255.680893,209.728119 256.972778,210.437332 258.834808,209.573105 
	C275.214325,201.970718 290.648346,203.895355 305.046600,214.589157 
	C311.943146,219.711349 315.023254,227.144089 317.110962,235.602020 
M262.640778,281.082397 
	C273.015808,271.752991 283.552094,262.594818 293.705688,253.030289 
	C299.837402,247.254318 300.305359,239.346283 295.612213,232.651825 
	C288.919495,223.105179 273.336884,220.151199 263.308716,229.666458 
	C257.333282,235.336288 256.553772,235.287018 251.128006,230.217102 
	C244.677979,224.190079 237.254715,222.367279 228.690155,225.063339 
	C214.512512,229.526291 210.787506,244.119095 221.508133,254.313049 
	C230.174805,262.553955 239.109085,270.515411 247.995895,278.521729 
	C250.919540,281.155731 254.066116,283.542267 257.311401,286.206665 
	C259.046387,284.547455 260.597870,283.063751 262.640778,281.082397 
z"/>
</svg>