<svg version="1.1" id="Layer_1" xmlns="http://www.w3.org/2000/svg" xmlns:xlink="http://www.w3.org/1999/xlink" x="0px" y="0px"
	 width="100%" viewBox="0 0 688 688" enable-background="new 0 0 688 688" xml:space="preserve">
<path fill="#000000" opacity="1.000000" stroke="none" 
	d="
M371.998901,515.014404 
	C376.563660,520.671021 380.904144,526.048279 385.940033,532.286987 
	C391.907684,512.614685 405.184296,499.892426 419.703918,488.018982 
	C408.337646,513.026062 397.362152,538.061951 390.051208,564.316650 
	C387.580750,564.607605 387.042023,562.963135 386.346924,561.753235 
	C367.104553,528.258118 338.421936,504.668701 306.221130,484.540283 
	C277.260284,466.437195 248.291779,448.364014 218.981140,430.823914 
	C194.372040,416.097290 170.735962,399.922913 150.102859,379.746368 
	C122.830177,353.077148 104.233978,321.727173 100.029381,283.320618 
	C96.616203,252.143311 99.583176,221.716797 116.688644,194.245148 
	C132.897720,168.213120 157.050110,153.342972 186.191742,145.730103 
	C224.322952,135.768829 260.446869,140.664078 294.408020,160.654938 
	C308.860626,169.162338 319.345154,181.517700 327.280914,196.150330 
	C327.993591,197.464462 328.741425,198.760895 329.520447,200.036545 
	C329.673553,200.287247 330.045837,200.404129 330.524445,200.719299 
	C332.849945,198.729462 332.959412,195.711334 333.439209,193.136444 
	C340.672791,154.314240 364.440887,128.898788 398.870941,112.091988 
	C415.821106,103.817879 433.718506,98.492073 452.572632,98.063469 
	C483.999390,97.349060 513.295593,104.440536 536.936768,126.548660 
	C553.131409,141.693161 561.813538,161.273941 566.310852,182.806412 
	C569.196045,196.620285 569.410889,210.539291 568.226868,224.529953 
	C568.075073,226.323593 567.965332,228.150803 566.508240,229.557877 
	C563.903442,228.820602 563.627625,226.457138 562.954712,224.498047 
	C546.870972,177.676315 513.813782,149.871262 465.456604,142.981171 
	C425.970795,137.355087 390.019623,148.038177 361.413361,177.602005 
	C349.029694,190.400177 341.984283,206.095978 338.401459,223.429047 
	C338.100098,224.886948 337.661865,226.326035 337.160522,227.728561 
	C336.954926,228.303818 336.412994,228.758865 335.921112,229.403549 
	C333.003387,228.732162 332.062561,226.272629 330.870392,224.217819 
	C315.172729,197.161575 291.533020,182.628510 260.649139,179.127228 
	C241.333298,176.937408 222.315872,177.779358 204.070480,184.802185 
	C170.448730,197.743530 147.600983,220.623901 141.780945,257.203033 
	C135.571823,296.227539 145.138519,331.505066 169.955063,362.452545 
	C189.886078,387.307526 215.686310,404.995117 242.378265,421.564941 
	C269.537537,438.424957 297.724915,453.608368 324.170715,471.631622 
	C342.023254,483.798431 358.063660,497.984985 371.998901,515.014404 
z"/>
<path fill="#000000" opacity="1.000000" stroke="none" 
	d="
M567.297241,420.328918 
	C567.161438,425.769043 567.637939,430.731201 566.520508,435.713165 
	C562.206177,454.948181 550.221619,464.949371 530.509705,466.394836 
	C517.713318,467.333191 505.347961,465.905151 493.063446,462.456146 
	C477.176880,457.995819 461.410889,460.179810 445.696289,463.759766 
	C431.788330,466.928162 418.376678,465.966339 406.606323,457.193970 
	C385.056732,441.133240 383.686157,408.839844 403.489655,389.002258 
	C410.203796,382.276550 418.522247,377.417084 425.028107,370.401733 
	C432.408997,362.442902 439.318451,354.188690 445.024597,344.897461 
	C455.285248,328.190186 475.866028,319.790924 493.290527,324.877563 
	C499.570374,326.710846 505.135010,329.919739 508.642090,335.429718 
	C522.311340,356.905884 539.377502,375.650299 555.964478,394.769501 
	C562.326233,402.102386 565.852722,410.443329 567.297241,420.328918 
z"/>
<path fill="#000000" opacity="1.000000" stroke="none" 
	d="
M476.834503,300.638000 
	C470.219208,313.606964 460.931976,321.989563 445.777924,321.293732 
	C436.581482,320.871429 429.245667,316.471313 423.417175,309.650604 
	C408.868652,292.625336 406.584076,269.049469 417.328857,248.495819 
	C422.540375,238.526718 428.973145,229.501099 437.902161,222.458084 
	C442.458405,218.864258 447.488831,216.530548 453.415283,216.426727 
	C460.694580,216.299240 466.356384,219.106186 469.952209,225.552063 
	C476.049286,236.481644 478.511383,248.486526 480.323914,260.702362 
	C481.969604,271.793793 482.854858,282.833282 479.397552,293.758026 
	C478.697662,295.969513 477.810974,298.121887 476.834503,300.638000 
z"/>
<path fill="#000000" opacity="1.000000" stroke="none" 
	d="
M497.806824,305.966431 
	C490.278046,289.435913 493.102570,273.165619 497.321075,256.924469 
	C499.794922,247.400101 503.083374,238.165833 508.351166,229.767105 
	C514.863831,219.383698 523.377747,217.078644 534.410034,222.369980 
	C544.961487,227.430695 550.806030,236.593384 556.017090,246.403625 
	C565.327637,263.931488 567.814331,281.874542 559.339966,300.474335 
	C556.394592,306.938965 552.099182,312.442719 546.609863,316.913696 
	C529.128418,331.151947 508.435730,326.609894 497.806824,305.966431 
z"/>
<path fill="#000000" opacity="1.000000" stroke="none" 
	d="
M390.771576,281.893066 
	C410.339142,298.145233 420.890686,318.505890 420.155090,343.768036 
	C419.827484,355.019043 414.410828,364.258636 404.006256,369.577271 
	C394.261566,374.558563 384.923401,372.495819 376.219727,366.675995 
	C359.070099,355.208801 353.034973,338.872314 355.286652,318.818634 
	C356.539185,307.663269 360.123810,297.508026 366.829254,288.472351 
	C373.008209,280.146149 381.172821,277.787231 390.771576,281.893066 
z"/>
<path fill="#000000" opacity="1.000000" stroke="none" 
	d="
M564.771912,307.825500 
	C569.108521,302.282684 573.426025,297.212738 579.112305,293.547028 
	C589.545593,286.821106 599.329712,288.883575 606.205627,299.290924 
	C611.362976,307.097107 613.829895,315.909332 614.932373,325.039764 
	C616.819885,340.671875 614.725403,355.382477 602.980896,367.151611 
	C595.783142,374.364349 587.573303,379.643372 576.911743,380.395996 
	C559.014160,381.659424 549.545654,366.712128 548.610107,353.246613 
	C547.398682,335.809052 555.083984,321.683075 564.771912,307.825500 
z"/>
<path fill="#000000" opacity="1.000000" stroke="none" 
	d="
M317.553223,642.712891 
	C321.609131,643.417725 326.627747,641.331299 327.466187,648.271362 
	C330.588074,639.421631 337.649750,644.014893 342.601074,643.344727 
	C347.754822,642.647156 353.853485,641.074829 358.847076,645.203308 
	C359.101807,645.413940 360.178650,644.983154 360.608734,644.573669 
	C364.762909,640.618835 369.786194,644.868469 374.334412,643.084656 
	C376.273987,642.323975 376.094513,645.841064 377.372131,647.042603 
	C380.576447,641.421509 381.825439,641.364014 385.060974,646.685608 
	C389.803894,641.090942 392.860931,641.084656 398.903442,647.016785 
	C399.684570,644.019348 401.140472,642.585449 404.575714,642.737244 
	C408.180603,642.896484 409.313538,644.133545 409.279877,647.434143 
	C409.264343,648.962830 408.726471,651.167725 411.093292,651.463806 
	C413.514252,651.766663 413.433685,649.649902 413.668457,648.029968 
	C414.160370,644.636047 416.567047,643.317261 419.542328,642.837463 
	C423.221069,642.244263 425.382904,643.710266 428.152649,648.429626 
	C430.844788,647.197815 430.293243,640.967590 434.983978,643.301147 
	C437.871490,644.737671 437.834198,648.770813 439.880432,651.401306 
	C442.192078,648.821655 437.898010,642.600586 444.809052,642.656555 
	C450.670074,642.703918 453.812622,645.424622 453.599060,651.175110 
	C456.276184,651.535156 456.315918,650.100952 456.606445,648.785339 
	C457.690826,643.874207 461.033569,641.481873 465.518402,643.050171 
	C468.225952,643.996887 470.470917,644.138428 473.091614,643.036926 
	C474.972809,642.246338 477.023407,642.615295 478.793152,643.876648 
	C479.578247,644.436218 480.295135,645.085388 481.472839,644.718445 
	C486.256378,643.228027 486.266113,643.259338 489.640503,646.848511 
	C490.990234,646.545532 491.165466,645.205811 491.826782,644.307983 
	C492.716705,643.099854 493.832611,642.596741 495.290894,643.005432 
	C496.617767,643.377258 497.115265,644.424988 497.141785,645.661621 
	C497.198822,648.322327 497.202881,650.986023 497.141846,653.646484 
	C497.118195,654.677979 496.170319,656.241577 495.642761,655.800171 
	C492.973511,653.566833 488.793457,656.203979 486.617401,652.781128 
	C485.967621,653.993103 486.721130,656.032410 484.527252,656.284912 
	C482.547180,656.512756 482.219452,654.743713 481.303619,653.529053 
	C478.214722,656.599182 474.657410,657.258606 470.811005,655.401978 
	C469.258972,654.652893 467.956665,654.944153 466.518005,655.460876 
	C465.587402,655.795166 464.441284,656.443481 463.670807,656.168640 
	C455.580139,653.283081 447.289764,658.104431 439.555023,655.971130 
	C431.215393,653.671082 423.190918,657.691467 414.900604,655.545227 
	C412.317413,654.876465 408.515045,656.011841 405.229004,656.177490 
	C401.385071,656.371155 398.414948,655.418701 396.487091,652.009338 
	C394.672913,653.101868 396.297424,656.470398 393.382233,655.961243 
	C391.085907,655.560120 391.761047,653.376770 391.595795,651.842590 
	C391.444885,650.441223 391.563782,649.010803 391.563782,646.791382 
	C388.933594,650.300659 390.132019,655.194275 385.564972,656.173767 
	C383.241180,656.672241 382.554443,654.598389 381.740265,652.952026 
	C377.878052,657.740601 376.558624,657.508057 373.371918,651.523376 
	C368.879822,656.990112 367.385406,657.331970 360.351288,654.502930 
	C359.898102,654.320618 359.212555,653.850220 359.024506,654.000671 
	C354.201996,657.858704 348.547058,655.208862 343.370026,656.090332 
	C337.598877,657.072876 334.300659,655.127441 333.191803,649.424255 
	C330.878265,651.413452 331.689606,656.162903 327.688507,656.108704 
	C323.793457,656.056091 324.135956,651.824951 322.029144,649.423462 
	C322.482330,653.958435 320.496735,656.250916 316.110413,656.251770 
	C306.697083,656.253723 297.282074,656.143738 287.871460,656.300537 
	C285.267365,656.343933 282.923553,656.363464 281.354980,653.895996 
	C279.160217,656.198914 277.442932,657.490723 275.597870,653.783875 
	C274.445831,651.469360 271.597717,651.650208 270.848114,653.619263 
	C269.586182,656.934143 267.495667,656.041565 265.228424,655.963989 
	C263.919037,655.919128 262.451111,656.538086 261.801971,654.865784 
	C261.006622,652.816895 262.562378,652.295593 264.030914,651.766968 
	C265.894928,651.096130 265.813263,649.422546 265.660828,647.990356 
	C265.199646,643.656250 267.361115,642.364319 271.275055,642.655273 
	C273.426300,642.815125 275.598480,642.742859 277.760040,642.706055 
	C287.071960,642.547485 288.070679,643.501709 287.571167,652.219543 
	C288.904358,651.827332 288.575653,650.669678 288.622498,649.803650 
	C289.012451,642.593384 288.995331,642.591980 296.014160,642.590332 
	C299.006287,642.589661 302.006317,642.460144 304.987762,642.638672 
	C306.940796,642.755676 309.868683,641.727478 310.112732,645.006653 
	C310.322235,647.820923 310.916229,651.269470 306.744110,652.207092 
	C309.460510,652.137390 312.396912,652.998596 311.229462,647.852722 
	C310.266693,643.609131 313.493744,642.512512 317.553223,642.712891 
M461.915039,650.581177 
	C464.099579,652.220215 465.700378,651.031128 467.457947,649.659485 
	C463.412018,646.591858 463.331146,646.599670 461.915039,650.581177 
M366.778625,647.905396 
	C364.981384,646.959167 363.812256,647.623169 363.565796,649.485962 
	C363.388397,650.826904 364.409668,651.757385 365.715881,651.642151 
	C367.843414,651.454590 367.907562,650.028625 366.778625,647.905396 
M422.160248,648.325684 
	C420.368408,646.893188 419.071930,647.298584 418.528656,649.484436 
	C418.270874,650.521545 418.844116,651.645935 419.884674,651.846558 
	C422.234192,652.299561 422.699158,650.807251 422.160248,648.325684 
M473.489960,647.866882 
	C471.695862,649.430603 472.300293,650.805847 473.988678,651.822021 
	C475.054626,652.463623 475.973175,651.674988 476.342499,650.710144 
	C477.165497,648.560364 476.249878,647.567566 473.489960,647.866882 
M339.896179,651.819763 
	C342.787506,651.302917 341.934631,649.452820 341.660583,647.457520 
	C338.472687,647.835693 337.669739,649.033264 339.896179,651.819763 
z"/>
<path fill="#000000" opacity="1.000000" stroke="none" 
	d="
M294.171997,449.872803 
	C291.683136,447.874939 288.485504,447.277466 286.994507,444.164703 
	C289.888489,443.387817 291.812286,445.103027 293.860748,445.881927 
	C319.349152,455.573975 344.857056,465.243011 368.614319,478.859100 
	C378.588623,484.575714 388.023224,491.081268 397.087830,498.161438 
	C400.385223,500.736938 400.347412,502.815765 397.800079,505.932922 
	C390.579803,514.768433 391.152405,513.918640 381.064117,508.795258 
	C356.050720,496.092010 336.248749,476.069458 312.669922,461.430115 
	C306.595703,457.658844 300.536713,453.863098 294.171997,449.872803 
z"/>
<path fill="#000000" opacity="1.000000" stroke="none" 
	d="
M203.064880,187.916077 
	C222.246750,180.850800 241.851547,178.563477 261.460358,181.389999 
	C285.130341,184.801926 306.107391,194.445999 321.187012,214.206345 
	C324.887421,219.055344 325.496765,223.346771 321.973572,228.652695 
	C301.969360,201.757568 275.229279,188.202286 241.938889,189.503510 
	C209.903778,190.755646 181.430908,201.362930 158.280029,224.635727 
	C168.736313,207.016342 183.568542,194.934891 203.064880,187.916077 
z"/>
<path fill="#000000" opacity="1.000000" stroke="none" 
	d="
M96.325943,254.965240 
	C94.339043,287.283997 102.686699,316.707092 118.440773,344.152130 
	C129.349564,363.156250 144.691833,378.436218 161.026108,392.791962 
	C178.362549,408.028564 197.391891,420.838287 217.247391,432.496582 
	C218.452377,433.204132 220.063248,433.695099 220.062683,435.579987 
	C218.855103,436.627472 217.779877,435.765076 216.817429,435.298370 
	C189.629761,422.114655 162.796677,408.274902 140.943863,386.839264 
	C113.603874,360.021027 96.793556,327.985107 93.495918,289.322998 
	C92.584312,278.635254 92.813255,268.050293 93.759895,257.426361 
	C93.916473,255.669144 94.230675,253.943298 95.816879,252.224457 
	C96.049126,253.318329 96.182678,253.947342 96.325943,254.965240 
z"/>
<path fill="#000000" opacity="1.000000" stroke="none" 
	d="
M436.168457,512.005859 
	C433.041748,524.809570 431.201202,537.437134 429.365448,549.921082 
	C426.687744,550.360474 426.000092,548.513794 424.942932,547.414124 
	C419.520264,541.773315 414.246429,535.988159 408.775055,530.395874 
	C406.367401,527.935059 405.596313,525.445435 407.246033,522.326172 
	C408.865906,519.263306 409.967133,515.909424 412.248810,513.191223 
	C415.717865,513.405701 416.736816,517.200073 420.342865,518.107666 
	C423.440063,499.208496 433.208771,483.853516 446.438232,470.319183 
	C443.725525,484.324219 439.034210,497.724579 436.168457,512.005859 
z"/>
<path fill="#000000" opacity="1.000000" stroke="none" 
	d="
M216.450806,643.255432 
	C217.434692,644.766296 218.114868,646.080566 219.070175,647.926514 
	C220.321350,645.287109 220.890732,642.350403 224.688477,642.596008 
	C227.601395,642.784363 228.722168,644.406128 229.727737,646.728455 
	C231.531525,645.799011 231.218506,642.811829 233.838959,642.873718 
	C236.706757,642.941467 236.120209,645.789978 237.752609,647.380249 
	C238.804138,644.646851 240.054306,642.408569 243.611191,642.631714 
	C246.650040,642.822327 247.454605,644.762085 248.371307,647.128174 
	C249.821304,645.639099 249.717148,642.723022 252.550247,642.899170 
	C255.121796,643.059082 255.250946,645.502014 256.473999,647.301819 
	C257.103943,646.024414 257.558472,644.842590 258.235931,643.806519 
	C258.844513,642.875732 259.876068,642.746704 260.909790,643.102661 
	C262.087463,643.508240 262.349548,644.570068 262.115234,645.533325 
	C261.605957,647.626709 260.897644,649.674011 260.218262,651.722778 
	C259.608459,653.561707 259.481628,655.725464 256.883820,656.165466 
	C254.123154,656.632935 253.825943,654.139221 252.611572,652.725769 
	C248.845840,658.256104 248.252563,657.993103 243.247375,648.583618 
	C241.287720,650.381714 241.622559,653.375183 239.899384,655.122986 
	C237.193924,657.867065 235.570953,655.019165 233.792816,653.538269 
	C229.482101,657.722412 229.482101,657.722412 224.619385,648.696960 
	C221.919098,650.555542 223.326889,655.562744 219.054291,656.099792 
	C216.580902,656.410583 216.444229,653.953552 215.147064,652.288574 
	C213.946274,653.953003 213.438263,656.571533 210.698547,656.089417 
	C208.141052,655.639221 208.297180,653.200562 207.491455,651.493042 
	C207.067795,650.595276 206.739609,649.633179 206.511826,648.666260 
	C206.083740,646.849182 204.189789,644.571289 206.442337,643.272888 
	C209.236877,641.662048 209.735626,645.048645 211.370819,646.645935 
	C213.076080,645.668091 212.864243,641.740906 216.450806,643.255432 
z"/>
</svg>