<svg version="1.1" id="Layer_1" xmlns="http://www.w3.org/2000/svg" xmlns:xlink="http://www.w3.org/1999/xlink" x="0px" y="0px"
	 width="100%" viewBox="0 0 560 592" enable-background="new 0 0 560 592" xml:space="preserve">
<path fill="#000000" opacity="1.000000" stroke="none" 
	d="
M410.000000,593.000000 
	C325.979095,593.000000 241.958206,593.000000 157.103180,592.850708 
	C154.953949,592.501160 153.644684,592.243530 152.322876,592.109314 
	C129.556366,589.798035 107.238670,585.426025 85.792915,577.259766 
	C55.513241,565.729614 30.141975,548.074524 13.828341,519.183716 
	C6.928284,506.963928 3.478639,493.649353 1.000000,480.000000 
	C1.000000,469.645782 1.000000,459.291534 1.000500,448.056519 
	C1.216075,446.206299 1.581031,445.243530 1.624364,444.266449 
	C2.790873,417.964172 6.024785,391.923553 11.716979,366.215546 
	C22.769468,316.298523 41.958977,270.034424 74.112267,229.807053 
	C101.187347,195.933044 133.796082,169.067749 174.339905,152.613846 
	C176.905548,151.572647 178.218063,149.829971 179.169022,147.340027 
	C184.574112,133.187866 190.123016,119.090729 195.573593,104.955833 
	C198.724442,96.784805 201.782394,88.577965 204.873245,80.410759 
	C201.955307,78.686966 199.403412,79.293793 196.985199,79.291374 
	C154.664734,79.249069 112.344200,79.280090 70.023705,79.259727 
	C55.379158,79.252678 47.817692,71.781807 47.705658,57.186108 
	C47.619972,46.023441 47.822140,34.857235 47.631935,23.697104 
	C47.461460,13.694922 50.793358,5.796857 60.000000,1.000000 
	C208.354233,1.000000 356.708466,1.000000 505.767151,1.235395 
	C515.076050,5.802382 518.271118,13.210420 518.292908,22.377754 
	C518.320251,33.868935 518.380615,45.361050 518.271362,56.851288 
	C518.129944,71.720482 510.470917,79.255821 495.724548,79.257935 
	C451.757935,79.264229 407.791321,79.258728 363.824799,79.321274 
	C361.627045,79.324402 359.159973,78.495453 357.065186,80.585754 
	C357.340363,81.674286 357.495178,82.826134 357.915771,83.870964 
	C366.928040,106.256897 376.011078,128.614502 384.954163,151.027954 
	C386.066040,153.814529 388.027924,155.143173 390.562683,156.238525 
	C403.903931,162.003769 416.470764,169.201981 428.447845,177.388199 
	C489.152618,218.879364 527.463318,276.302612 548.310120,346.131042 
	C554.071411,365.429077 557.813843,385.152100 561.000000,405.000000 
	C561.000000,436.020905 561.000000,467.041779 560.859253,498.855408 
	C550.964478,528.809692 531.705017,550.020081 505.508575,565.319824 
	C486.798431,576.247253 466.434418,582.741028 445.369507,587.335754 
	C433.676697,589.886108 421.749390,590.864685 410.000000,593.000000 
M73.671204,543.772583 
	C79.582214,547.225708 85.764641,550.112854 92.133156,552.608948 
	C124.090759,565.134583 157.628082,569.133789 191.528656,569.466125 
	C251.016434,570.049255 310.514771,569.800171 370.007202,569.547546 
	C394.998047,569.441406 419.870392,567.334045 444.303436,561.624146 
	C469.923950,555.636658 494.133453,546.471680 513.642456,528.078308 
	C530.339111,512.336365 539.903320,493.020050 539.854736,469.643433 
	C539.812134,449.156097 538.572083,428.757538 535.847778,408.414703 
	C530.222473,366.409973 518.524719,326.368225 497.698425,289.320618 
	C470.133362,240.285583 431.759583,202.605103 380.203064,179.032639 
	C376.025879,177.122757 371.793884,176.240112 367.175385,176.245468 
	C307.682007,176.314346 248.188507,176.303726 188.695160,176.218201 
	C184.411179,176.212036 180.493576,177.038773 176.636093,178.811005 
	C154.298187,189.073700 134.533051,203.073822 116.881371,220.081039 
	C81.851845,253.831635 58.894978,294.890686 44.479893,340.964874 
	C31.040972,383.919037 25.977190,428.082611 26.248270,472.958954 
	C26.294088,480.543945 27.928576,487.819672 30.447206,494.916382 
	C38.191452,516.737000 53.410988,532.022034 73.671204,543.772583 
M307.500000,53.842178 
	C362.312714,53.852428 417.125458,53.863827 471.938171,53.871056 
	C477.102875,53.871738 482.270660,53.731861 487.431244,53.870846 
	C491.210083,53.972618 492.955750,52.517334 492.841888,48.605232 
	C492.691711,43.445351 492.842804,38.277111 492.838074,33.112488 
	C492.831055,25.440235 492.821259,25.426241 484.931732,25.425982 
	C350.148682,25.421530 215.365631,25.420799 80.582573,25.419247 
	C80.249367,25.419243 79.912071,25.453335 79.583565,25.414030 
	C74.905731,24.854345 72.776283,26.693279 73.084206,31.615265 
	C73.374908,36.261887 73.129158,40.941223 73.144890,45.606079 
	C73.172546,53.807861 73.180695,53.828064 81.583908,53.829029 
	C156.555939,53.837639 231.527969,53.838551 307.500000,53.842178 
M300.499878,147.658539 
	C317.149231,147.657593 333.798645,147.685196 350.447845,147.638611 
	C355.568115,147.624283 356.112427,146.856796 354.182556,142.040222 
	C346.447388,122.735100 338.548737,103.495071 330.903625,84.154655 
	C329.448975,80.474709 327.355377,79.169449 323.442078,79.187851 
	C294.972290,79.321686 266.501190,79.337311 238.031631,79.184158 
	C233.853821,79.161690 231.750290,80.624733 230.299286,84.497986 
	C223.120880,103.659706 215.692215,122.727570 208.414963,141.852570 
	C207.803314,143.460007 206.491409,145.102264 208.130203,147.658340 
	C238.329880,147.658340 268.914856,147.658340 300.499878,147.658539 
z"/>
<path fill="#000000" opacity="1.000000" stroke="none" 
	d="
M307.913391,532.235107 
	C277.008881,536.559753 247.550156,532.893433 219.916168,519.286011 
	C172.122177,495.751434 142.702881,457.459747 134.036591,404.923859 
	C121.159309,326.860809 171.063004,252.334915 247.683334,233.051331 
	C332.665436,211.663269 418.737732,266.953949 434.964081,353.355835 
	C450.554718,436.372620 394.580444,517.014709 311.281677,531.552856 
	C310.298431,531.724365 309.329041,531.975220 307.913391,532.235107 
M217.588577,281.842255 
	C216.274170,279.996490 216.006241,277.414276 213.321091,276.004364 
	C204.920166,281.386597 197.315842,287.792328 190.876343,295.597321 
	C193.483505,298.900665 196.717438,300.444244 199.352081,302.706970 
	C204.577255,307.194611 205.616348,314.358032 201.869614,319.770935 
	C198.096893,325.221405 191.120300,326.702240 185.082916,323.152893 
	C182.651596,321.723541 180.412445,319.953918 178.152313,318.250946 
	C176.345993,316.889862 174.882187,316.780029 173.657425,318.955292 
	C169.558716,326.234924 166.192413,333.837524 163.586090,341.772186 
	C162.876862,343.931305 163.539017,345.241058 165.975922,345.661774 
	C169.085281,346.198578 172.225952,346.753815 175.220352,347.714813 
	C181.415863,349.703064 184.620010,355.832886 183.221008,362.494934 
	C182.035950,368.138184 175.602371,372.609985 169.628860,371.824890 
	C166.992050,371.478333 164.385941,370.892975 161.770004,370.394348 
	C158.936279,369.854126 157.270859,370.584686 157.342300,373.891083 
	C157.464706,379.554657 156.727081,385.324768 157.566498,390.865936 
	C159.116364,401.096802 156.828247,401.841705 168.306961,398.691437 
	C168.787949,398.559418 169.282684,398.476715 169.772064,398.376160 
	C176.633224,396.966370 183.087753,400.781830 184.948868,407.346802 
	C186.667664,413.409760 183.393753,419.725372 177.040314,422.198395 
	C174.573044,423.158752 171.956741,423.792725 169.359833,424.348755 
	C166.345337,424.994232 165.542419,426.465240 166.733337,429.343292 
	C169.671921,436.444794 173.189514,443.231567 177.221344,449.771362 
	C178.801193,452.333923 180.479065,452.875916 182.823975,450.773468 
	C184.311447,449.439789 185.884720,448.198822 187.453918,446.959839 
	C193.670776,442.051208 201.111893,442.367615 205.795609,447.720215 
	C210.702271,453.327728 209.849121,460.575684 203.573425,466.228180 
	C201.965439,467.676483 200.249115,469.003967 198.596603,470.403564 
	C197.120712,471.653595 196.492874,473.017120 198.167831,474.592743 
	C204.960922,480.983002 212.293610,486.610840 220.996841,491.300690 
	C222.642883,487.843231 223.991653,484.850464 225.475296,481.926117 
	C228.881805,475.211670 235.877075,472.479797 242.209702,475.322266 
	C248.382172,478.092865 251.036987,484.823822 248.604401,491.761597 
	C247.889694,493.799927 247.106171,495.855164 246.032974,497.717560 
	C244.211563,500.878418 244.983337,502.649719 248.488953,503.439850 
	C253.192291,504.499817 257.839874,505.870087 262.585236,506.668182 
	C273.954651,508.580261 273.972015,508.476807 274.696625,497.044373 
	C275.299683,487.528931 284.148041,481.872406 292.408020,485.680969 
	C298.709869,488.586639 299.769531,494.189514 300.079254,500.236511 
	C300.466248,507.791901 300.522644,507.986176 307.716553,506.566650 
	C315.293518,505.071564 322.927673,503.579956 329.839264,499.943848 
	C329.225983,496.360443 327.513275,493.856781 326.244568,491.170227 
	C322.754395,483.779572 324.894928,476.525238 331.541718,473.239288 
	C338.065430,470.014221 344.615509,472.542542 348.622467,479.758820 
	C350.126221,482.467010 350.994385,485.592651 353.632843,487.983429 
	C359.659851,484.698853 364.768799,480.427765 369.733002,476.048950 
	C379.148407,467.743744 377.736694,468.858978 369.707581,462.656769 
	C363.053375,457.516693 361.902740,450.169769 366.464172,444.251892 
	C370.746735,438.695648 378.074280,438.082428 384.766754,442.470367 
	C387.464569,444.239227 389.509735,447.130188 393.090302,447.780365 
	C397.576538,441.491577 400.708252,434.693176 403.550171,427.768066 
	C406.591339,420.357269 406.414642,420.175873 398.412262,418.427948 
	C396.951508,418.108887 395.470490,417.825256 394.058929,417.347656 
	C387.657654,415.181671 384.237579,408.751251 385.923798,402.170074 
	C387.403839,396.393524 393.592590,392.370361 399.781952,393.261383 
	C402.413086,393.640137 405.021301,394.194000 407.626434,394.733459 
	C410.319855,395.291199 411.342255,394.401917 411.829987,391.518219 
	C413.158447,383.663269 412.120087,375.904480 411.609344,368.110413 
	C411.405853,365.004944 409.858887,364.136414 406.881561,365.007477 
	C404.336182,365.752167 401.698151,366.266174 399.065552,366.609741 
	C392.417969,367.477325 387.197510,363.778412 385.298828,357.030792 
	C383.707092,351.374084 386.767700,345.218781 392.626678,342.869965 
	C395.231079,341.825867 398.037811,341.237732 400.794952,340.636169 
	C404.028137,339.930756 404.927612,338.168976 403.616638,335.209534 
	C401.594208,330.643982 399.720398,326.001160 397.465973,321.552063 
	C392.227997,311.214966 392.151031,311.253906 382.920288,318.008636 
	C376.613434,322.623749 369.565369,321.942139 365.127136,316.287811 
	C360.826202,310.808380 361.718597,303.371338 367.340607,298.435608 
	C369.805969,296.271179 372.381012,294.231659 375.269562,291.833832 
	C367.863098,284.155151 360.088257,277.891327 351.167786,272.738098 
	C348.600372,275.891357 347.596924,279.285980 345.901917,282.289703 
	C342.284546,288.700012 335.290924,291.170898 329.304108,288.239288 
	C323.116455,285.209229 320.667603,278.523376 323.333557,271.708862 
	C324.181976,269.540253 325.192566,267.428833 326.232910,265.343079 
	C327.544189,262.714264 327.200409,261.078735 324.067383,260.128143 
	C317.688904,258.192810 311.276001,256.381622 304.687561,255.425812 
	C297.383636,254.366180 297.362854,254.531860 297.337341,262.123535 
	C297.332306,263.623016 297.403534,265.134125 297.247559,266.619751 
	C296.551117,273.255096 290.775879,278.454254 284.410461,278.252228 
	C278.060699,278.050751 272.987823,273.062164 272.448212,266.368469 
	C272.274719,264.216888 272.366302,262.044312 272.327393,259.881500 
	C272.262665,256.286652 271.151489,254.469696 266.867035,255.125443 
	C258.603516,256.390167 250.547699,258.295563 242.671127,261.048553 
	C236.163971,263.322937 236.198425,263.287659 239.271118,269.153198 
	C240.424881,271.355652 241.618942,273.597870 242.326843,275.962036 
	C244.874329,284.470123 237.761902,292.602173 228.924667,291.564423 
	C223.243896,290.897308 220.205032,287.188354 217.588577,281.842255 
z"/>
<path fill="#000000" opacity="1.000000" stroke="none" 
	d="
M275.828613,386.357239 
	C271.839447,383.155273 269.848816,379.390656 269.583466,374.568237 
	C269.296234,369.348877 271.141388,365.828308 275.920715,363.286224 
	C301.312592,349.780426 326.595581,336.069855 351.912445,322.423157 
	C352.791595,321.949310 353.625214,321.380707 354.805695,321.724609 
	C355.753204,323.397766 354.087646,324.038055 353.315887,324.839722 
	C334.056580,344.844879 314.916229,364.968597 294.860016,384.188568 
	C288.242523,390.530121 284.318298,391.012085 275.828613,386.357239 
z"/>
</svg>